<svg xmlns="http://www.w3.org/2000/svg" width="36" height="20" viewBox="0 0 36 20"><path fill="#A8721B" d="M36 10c0 5.5-4.5 10-10 10H10C4.5 20 0 15.5 0 10S4.5 0 10 0h16c5.5 0 10 4.5 10 10"/><linearGradient id="a" x1="18" x2="18" y1="1.09" y2="18.706" gradientUnits="userSpaceOnUse"><stop offset="0" stop-color="#fffbcc"/><stop offset=".994" stop-color="#fbc926"/></linearGradient><path fill="url(#a)" d="M10 19c-4.95 0-9-4.05-9-9s4.05-9 9-9h16c4.95 0 9 4.05 9 9s-4.05 9-9 9z"/><path fill="#A8721B" d="m23.233 6.27-5.337 8.511-5.337-8.511z"/></svg>